<svg width="155" height="13" viewBox="0 0 155 13" fill="none" xmlns="http://www.w3.org/2000/svg">
<path d="M18.2249 0V1.5925H10.031V13H8.37274V1.5925H0V0H18.2249Z" fill="white"/>
<path d="M21.5185 13L28.9646 1.105C29.4523 0.325 29.9725 -1.66917e-07 31.1268 -6.60536e-08L32.6713 6.8906e-08C33.9882 1.83978e-07 34.3134 0.34125 34.8011 1.12125L42.2471 13H40.2312L33.663 2.4375C33.1591 1.625 33.029 1.5925 32.1186 1.5925H31.6796C30.7692 1.5925 30.6391 1.625 30.1351 2.42125L23.4857 13H21.5185Z" fill="white"/>
<path d="M64.1526 0V13H62.0391C60.1858 13 59.0477 12.3988 57.9259 11.1475L50.5287 2.94125C49.5044 1.82 49.0492 1.5925 47.6185 1.5925H47.1633V13H45.5375V0H47.6185C49.4231 0 50.5124 0.53625 51.6179 1.77125L59.0802 10.0262C60.137 11.18 60.4947 11.4075 62.0391 11.4075H62.5106V0H64.1526Z" fill="white"/>
<path d="M111.578 4.1925V8.84C111.578 11.6187 109.936 13 106.652 13H96.6049C93.3046 13 91.6625 11.6187 91.6625 8.84V4.1925C91.6625 1.3975 93.3046 0 96.6049 0H106.652C109.936 0 111.578 1.3975 111.578 4.1925ZM106.652 1.5925H97.3202C94.719 1.5925 93.3371 2.3075 93.3371 4.1925V8.04375C93.3371 10.1725 93.9386 11.4075 96.6049 11.4075H105.937C108.522 11.4075 109.904 10.7087 109.904 8.84V4.9725C109.904 2.8275 109.302 1.5925 106.652 1.5925Z" fill="white"/>
<path d="M87.3691 4.33875V3.2175C87.3691 1.0725 86.101 0 83.581 0H68.2825V1.5925H83.581C85.1743 1.5925 85.7758 2.275 85.7758 3.65625V4.4525C85.7758 5.02125 85.4019 5.655 84.7516 5.655H68.2825V13H83.581C86.1985 13 87.5154 11.9275 87.5154 9.7825V8.10875C87.5154 7.23125 86.9789 6.51625 86.2148 6.32125C86.8813 6.02875 87.3691 5.21625 87.3691 4.33875ZM69.957 7.10125H84.7678C85.4832 7.10125 85.8571 7.62125 85.8571 8.17375V9.57125C85.8571 11.115 84.6866 11.4075 82.8007 11.4075H69.957V7.10125Z" fill="white"/>
<path d="M133.43 4.56625V3.2175C133.43 1.0725 132.113 0 129.479 0H115.725V1.5925H129.479C131.138 1.5925 131.755 2.145 131.755 3.59125V4.30625C131.755 5.6875 131.138 6.19125 129.479 6.19125H115.725V13H117.4V7.78375H129.479C132.113 7.78375 133.43 6.71125 133.43 4.56625Z" fill="white"/>
<path d="M155 4.56625V3.2175C155 1.0725 153.683 0 151.049 0H137.295V1.5925H151.049C152.708 1.5925 153.325 2.145 153.325 3.59125V4.30625C153.325 5.6875 152.708 6.19125 151.049 6.19125H137.295V13H138.97V7.78375H151.049C153.683 7.78375 155 6.71125 155 4.56625Z" fill="white"/>
</svg>
